<?xml version="1.0" encoding="utf-8"?>
<svg viewBox="0 0 500 277" xmlns="http://www.w3.org/2000/svg">
  <rect x="2.516" y="51.904" width="53.267" height="172.238" style="fill: rgb(216, 216, 216);"/>
  <rect x="69.48" y="3.543" width="77.154" height="270" style="fill: rgb(216, 216, 216);"/>
  <path d="M 429.743 273.543 L 429.743 206.043 L 429.743 138.543 L 429.743 71.043 L 429.743 3.543 L 411.548 3.543 L 393.352 3.543 L 375.157 3.543 L 356.961 3.543 L 356.961 71.043 L 356.961 138.543 L 356.961 206.043 L 356.961 273.543 L 375.157 273.543 L 393.352 273.543 L 411.548 273.543 Z" style="fill: rgb(216, 216, 216);" transform="matrix(-1, 0, 0, -1, 786.704003, 277.086007)"/>
  <rect x="-497.414" y="51.904" width="53.267" height="172.238" style="fill: rgb(216, 216, 216);" transform="matrix(-1, 0, 0, 1, 0, 0)"/>
  <path d="M 31.951044387817383 92.05699920654297 Q 32.132007083129885 91.30298797607422 32.26772910461426 90.23229202880859 Q 32.40345112609863 89.16159608154297 32.40345112609863 88.01549901123047 Q 32.40345112609863 86.95988328857422 32.252648880004884 85.9495082397461 Q 32.10184663391113 84.93913319091797 31.951044387817383 84.21528240966796 Q 33.30826460266113 84.21528240966796 34.333719876098634 84.00415926513672 Q 35.359175149536135 83.79303612060546 36.05286548156738 83.29538870849609 Q 36.74655581359863 82.79774129638672 37.09340097961426 81.93816849365234 Q 37.440246145629885 81.07859569091796 37.440246145629885 79.78169637451172 Q 37.440246145629885 77.24821864013671 37.30452412414551 75.43859168701172 Q 37.16880210266113 73.62896473388672 36.91243828430176 72.45270721435547 Q 36.65607446594238 71.27644969482422 36.26398862609863 70.65816048583984 Q 35.871902786254886 70.03987127685546 35.359175149536135 69.88906903076172 Q 35.90206323547363 69.70810633544922 36.294149075317385 69.31602049560547 Q 36.68623491516113 68.92393465576171 36.94259873352051 67.9738805053711 Q 37.19896255187988 67.02382635498047 37.31960434875488 65.34992142333985 Q 37.440246145629885 63.676016491699215 37.440246145629885 60.90125516357422 Q 37.440246145629885 59.604355847167966 37.09340097961426 58.744783044433596 Q 36.74655581359863 57.88521024169922 36.05286548156738 57.38756282958985 Q 35.359175149536135 56.889915417480466 34.333719876098634 56.67879227294922 Q 33.30826460266113 56.46766912841797 31.951044387817383 56.46766912841797 Q 32.10184663391113 55.74381834716797 32.252648880004884 54.73344329833984 Q 32.40345112609863 53.72306824951172 32.40345112609863 52.66745252685547 Q 32.40345112609863 51.52135545654297 32.26772910461426 50.450659509277344 Q 32.132007083129885 49.37996356201172 31.951044387817383 48.62595233154297 Q 32.554253372192385 48.776754577636716 34.03211538391113 48.91247659912109 Q 35.50997739562988 49.04819862060547 37.47040659484863 49.16884041748047 Q 39.430835794067384 49.289482214355466 41.66270903625488 49.37996356201172 Q 43.894582278442385 49.47044490966797 46.02089394836426 49.54584603271484 Q 48.14720561828614 49.62124715576172 49.941752346801756 49.65140760498047 Q 51.73629907531738 49.68156805419922 52.82207524719239 49.68156805419922 Q 53.907851419067384 49.68156805419922 55.71747837219238 49.65140760498047 Q 57.52710532531738 49.62124715576172 59.653416995239255 49.54584603271484 Q 61.77972866516113 49.47044490966797 64.01160190734863 49.37996356201172 Q 66.24347514953612 49.289482214355466 68.20390434875489 49.16884041748047 Q 70.16433354797363 49.04819862060547 71.64219555969238 48.91247659912109 Q 73.12005757141114 48.776754577636716 73.72326655578613 48.62595233154297 Q 73.48198296203614 49.89269119873047 73.22561914367677 51.83804017333984 Q 72.96925532531739 53.78338914794922 72.96925532531739 55.954941491699216 Q 72.96925532531739 57.22168035888672 73.05973667297363 58.443178552246096 Q 73.15021802062988 59.66467674560547 73.25577959289551 60.67505179443359 Q 73.36134116516114 61.68542684326172 73.4970631866455 62.43943807373047 Q 73.63278520812989 63.19344930419922 73.72326655578613 63.55537469482422 Q 72.81845307922363 63.22360975341797 71.41599219055175 63.01248660888672 Q 70.01353130187988 62.80136346435547 68.44518794250487 62.80136346435547 Q 67.75149761047363 62.80136346435547 66.95224570617675 62.831523913574216 Q 66.15299380187989 62.86168436279297 65.33866167297363 62.95216571044922 Q 64.52432954406738 63.04264705810547 63.77031831359863 63.19344930419922 Q 63.01630708312988 63.34425155029297 62.41309809875488 63.55537469482422 Q 62.62422124328613 62.92200526123047 62.759943264770506 62.01719178466797 Q 62.89566528625488 61.11237830810547 62.89566528625488 60.17740438232422 Q 62.89566528625488 58.63922147216797 62.156734280395504 57.719327770996095 Q 61.41780327453613 56.79943406982422 60.33202710266113 56.31686688232422 Q 59.24625093078613 55.83429969482422 58.03983296203613 55.69857767333984 Q 56.833414993286134 55.56285565185547 55.89844106750488 55.56285565185547 Q 55.20475073547363 55.56285565185547 54.43565928039551 55.6080963256836 Q 53.66656782531739 55.65333699951172 52.867315921020506 55.81921947021485 Q 52.06806401672363 55.98510194091797 51.283892337036136 56.271626208496095 Q 50.49972065734863 56.55815047607422 49.836190774536135 57.04071766357422 Q 49.71554897766113 57.734407995605466 49.62506763000488 58.63922147216797 Q 49.534586282348634 59.54403494873047 49.534586282348634 60.90125516357422 Q 49.534586282348634 62.92200526123047 49.60998740539551 64.0530221069336 Q 49.68538852844238 65.18403895263671 49.80603032531738 65.78724793701173 Q 50.258437063598635 65.96821063232422 50.891806497192384 66.08885242919922 Q 51.52517593078613 66.20949422607421 52.218866262817386 66.29997557373046 Q 52.91255659484863 66.39045692138671 53.591166702270506 66.42061737060547 Q 54.26977680969238 66.45077781982422 54.842825344848634 66.45077781982422 Q 55.687317922973634 66.45077781982422 56.622291848754884 66.37537669677735 Q 57.557265774536134 66.29997557373046 58.40175835266113 66.17933377685547 Q 59.24625093078613 66.05869197998047 59.92486103820801 65.89280950927734 Q 60.60347114562988 65.72692703857422 60.93523608703613 65.54596434326172 Q 60.69395249328613 66.20949422607421 60.588390921020505 67.38575174560546 Q 60.48282934875488 68.56200926513672 60.48282934875488 69.85890858154298 Q 60.48282934875488 70.58275936279297 60.51298979797363 71.2915299194336 Q 60.543150247192386 72.00030047607422 60.61855137023926 72.58842923583984 Q 60.69395249328613 73.17655799560546 60.76935361633301 73.61388450927734 Q 60.84475473937988 74.05121102294922 60.93523608703613 74.26233416748047 Q 60.66379204406738 74.11153192138671 59.97010171203613 73.93056922607423 Q 59.27641138000489 73.74960653076172 58.35651767883301 73.59880428466798 Q 57.43662397766113 73.44800203857422 56.39608847961426 73.35752069091797 Q 55.355552981567385 73.26703934326171 54.36025815734863 73.26703934326171 Q 53.84753052062988 73.26703934326171 53.22924131164551 73.29719979248047 Q 52.61095210266113 73.32736024169921 51.99266289367676 73.4027613647461 Q 51.37437368469239 73.47816248779297 50.80132514953613 73.58372406005859 Q 50.22827661437988 73.68928563232421 49.80603032531738 73.84008787841796 Q 49.745709426879884 74.20201326904296 49.70046875305176 74.6695002319336 Q 49.65522807922363 75.13698719482421 49.60998740539551 75.84575775146484 Q 49.56474673156738 76.55452830810547 49.549666506958005 77.51966268310547 Q 49.534586282348634 78.48479705810547 49.534586282348634 79.78169637451172 Q 49.534586282348634 81.19923748779297 50.10763481750489 82.07389051513672 Q 50.680683352661134 82.94854354248046 51.87202109680176 83.4160305053711 Q 53.063358840942385 83.88351746826172 54.88806601867675 84.04939993896484 Q 56.712773196411135 84.21528240966796 59.24625093078613 84.21528240966796 Q 59.095448684692386 84.93913319091797 58.94464643859863 85.9495082397461 Q 58.79384419250488 86.95988328857422 58.79384419250488 88.01549901123047 Q 58.79384419250488 89.16159608154297 58.92956621398926 90.23229202880859 Q 59.06528823547363 91.30298797607422 59.24625093078613 92.05699920654297 Q 58.40175835266113 91.87603651123047 56.78817431945801 91.7403144897461 Q 55.17459028625488 91.60459246826171 53.25940176086426 91.4990308959961 Q 51.34421323547363 91.39346932373047 49.39886426086426 91.34822864990234 Q 47.453515286254884 91.30298797607422 45.91533237609863 91.30298797607422 Q 44.28666811828613 91.30298797607422 42.235757571411135 91.34822864990234 Q 40.18484702453613 91.39346932373047 38.20933760070801 91.4990308959961 Q 36.23382817687988 91.60459246826171 34.544843020629884 91.7403144897461 Q 32.855857864379885 91.87603651123047 31.951044387817383 92.05699920654297 Z M 78.63828234863281 92.05699920654297 Q 78.81924504394532 91.30298797607422 78.95496706542968 90.23229202880859 Q 79.09068908691407 89.16159608154297 79.09068908691407 88.01549901123047 Q 79.09068908691407 86.95988328857422 78.93988684082031 85.9495082397461 Q 78.78908459472656 84.93913319091797 78.63828234863281 84.21528240966796 Q 79.99550256347656 84.21528240966796 81.15667985839843 84.00415926513672 Q 82.31785715332032 83.79303612060546 83.17742995605468 83.29538870849609 Q 84.03700275878906 82.79774129638672 84.53465017089843 81.93816849365234 Q 85.03229758300782 81.07859569091796 85.03229758300782 79.78169637451172 Q 85.03229758300782 77.24821864013671 84.89657556152343 75.43859168701172 Q 84.76085354003907 73.62896473388672 84.50448972167969 72.45270721435547 Q 84.24812590332031 71.27644969482422 83.85604006347657 70.65816048583984 Q 83.46395422363281 70.03987127685546 82.95122658691406 69.88906903076172 Q 83.49411467285157 69.70810633544922 83.88620051269531 69.2406193725586 Q 84.27828635253906 68.77313240966797 84.53465017089843 67.71751668701172 Q 84.7910139892578 66.66190096435547 84.91165578613281 64.8975146850586 Q 85.03229758300782 63.133128405761724 85.03229758300782 60.358367077636714 Q 85.03229758300782 59.15194910888672 84.47432927246093 58.39793787841797 Q 83.91636096191407 57.64392664794922 83.02662770996093 57.206600134277345 Q 82.13689445800782 56.76927362060547 81.0511182861328 56.61847137451172 Q 79.96534211425781 56.46766912841797 78.90972639160157 56.46766912841797 L 78.3366778564453 56.46766912841797 Q 78.48748010253907 55.74381834716797 78.63828234863281 54.793764196777346 Q 78.78908459472656 53.84371004638672 78.78908459472656 52.78809432373047 Q 78.78908459472656 51.67215770263672 78.65336257324219 50.52606063232422 Q 78.51764055175781 49.37996356201172 78.3366778564453 48.62595233154297 Q 78.90972639160157 48.83707547607422 80.34234772949219 49.03311839599609 Q 81.77496906738281 49.22916131591797 83.58459602050782 49.36488333740235 Q 85.39422297363281 49.500605358886716 87.38481262207031 49.59108670654297 Q 89.3754022705078 49.68156805419922 91.09454787597656 49.68156805419922 Q 92.84385393066407 49.68156805419922 94.68364133300781 49.59108670654297 Q 96.52342873535156 49.500605358886716 98.15209299316406 49.34980311279297 Q 99.78075725097656 49.19900086669922 101.04749611816406 49.01803817138672 Q 102.31423498535156 48.83707547607422 102.91744396972656 48.62595233154297 Q 102.73648127441406 49.37996356201172 102.60075925292969 50.52606063232422 Q 102.46503723144531 51.67215770263672 102.46503723144531 52.78809432373047 Q 102.46503723144531 53.84371004638672 102.61583947753905 54.793764196777346 Q 102.76664172363282 55.74381834716797 102.91744396972656 56.46766912841797 L 102.2840745361328 56.46766912841797 Q 101.16813791503907 56.46766912841797 100.2331639892578 56.61847137451172 Q 99.29819006347657 56.76927362060547 98.60449973144532 57.206600134277345 Q 97.91080939941406 57.64392664794922 97.5187235595703 58.39793787841797 Q 97.12663771972656 59.15194910888672 97.12663771972656 60.358367077636714 Q 97.12663771972656 63.133128405761724 97.24727951660157 64.8975146850586 Q 97.36792131347656 66.66190096435547 97.62428513183593 67.71751668701172 Q 97.88064895019531 68.77313240966797 98.27273479003907 69.2406193725586 Q 98.66482062988281 69.70810633544922 99.20770871582032 69.88906903076172 Q 98.69498107910157 70.03987127685546 98.30289523925781 70.65816048583984 Q 97.91080939941406 71.27644969482422 97.65444558105469 72.45270721435547 Q 97.39808176269531 73.62896473388672 97.26235974121093 75.43859168701172 Q 97.12663771972656 77.24821864013671 97.12663771972656 79.78169637451172 Q 97.12663771972656 81.07859569091796 97.56396423339844 81.93816849365234 Q 98.00129074707031 82.79774129638672 98.81562287597656 83.29538870849609 Q 99.62995500488282 83.79303612060546 100.82129274902344 84.00415926513672 Q 102.01263049316407 84.21528240966796 103.52065295410156 84.21528240966796 Q 103.36985070800782 84.93913319091797 103.21904846191407 85.9495082397461 Q 103.06824621582031 86.95988328857422 103.06824621582031 88.01549901123047 Q 103.06824621582031 89.16159608154297 103.20396823730468 90.23229202880859 Q 103.33969025878906 91.30298797607422 103.52065295410156 92.05699920654297 Q 102.64599992675781 91.87603651123047 101.18321813964843 91.7403144897461 Q 99.72043635253905 91.60459246826171 97.98621052246094 91.4990308959961 Q 96.25198469238282 91.39346932373047 94.44235773925782 91.34822864990234 Q 92.63273078613281 91.30298797607422 91.09454787597656 91.30298797607422 Q 89.55636496582031 91.30298797607422 87.73165778808594 91.34822864990234 Q 85.90695061035156 91.39346932373047 84.17272478027344 91.4990308959961 Q 82.43849895019531 91.60459246826171 80.96063693847657 91.7403144897461 Q 79.48277492675781 91.87603651123047 78.63828234863281 92.05699920654297 Z M 120.92247235107422 92.05699920654297 Q 121.10343504638672 91.30298797607422 121.23915706787109 90.23229202880859 Q 121.37487908935547 89.16159608154297 121.37487908935547 88.01549901123047 Q 121.37487908935547 86.95988328857422 121.22407684326171 85.9495082397461 Q 121.07327459716797 84.93913319091797 120.92247235107422 84.21528240966796 Q 123.00354334716798 84.21528240966796 124.39092401123047 84.00415926513672 Q 125.77830467529297 83.79303612060546 126.63787747802735 83.29538870849609 Q 127.49745028076171 82.79774129638672 127.85937567138672 81.93816849365234 Q 128.22130106201172 81.07859569091796 128.22130106201172 79.78169637451172 Q 128.22130106201172 77.24821864013671 128.08557904052734 75.43859168701172 Q 127.94985701904297 73.62896473388672 127.69349320068359 72.45270721435547 Q 127.43712938232422 71.27644969482422 127.04504354248047 70.65816048583984 Q 126.65295770263671 70.03987127685546 126.14023006591796 69.88906903076172 Q 126.68311815185547 69.70810633544922 127.07520399169923 69.2406193725586 Q 127.46728983154297 68.77313240966797 127.72365364990235 67.71751668701172 Q 127.98001746826172 66.66190096435547 128.10065926513673 64.8975146850586 Q 128.22130106201172 63.133128405761724 128.22130106201172 60.358367077636714 Q 128.22130106201172 58.669381921386716 128.08557904052734 57.734407995605466 Q 127.94985701904297 56.79943406982422 127.79905477294922 56.166064636230466 Q 126.68311815185547 55.83429969482422 125.40129906005859 55.69857767333984 Q 124.11947996826171 55.56285565185547 123.36546873779297 55.56285565185547 Q 120.68118875732422 55.56285565185547 119.42953011474609 56.92007586669922 Q 118.17787147216796 58.27729608154297 118.17787147216796 61.11237830810547 Q 118.17787147216796 62.710882116699224 118.4040748413086 64.2943057006836 Q 118.63027821044922 65.87772928466796 118.96204315185547 66.87302410888671 Q 117.69530428466797 66.45077781982422 116.45872586669921 66.28489534912109 Q 115.22214744873047 66.11901287841798 113.83476678466796 66.11901287841798 Q 112.17594207763672 66.11901287841798 110.69808006591796 66.33013602294922 Q 109.22021805419922 66.54125916748046 108.25508367919922 66.87302410888671 Q 108.34556502685547 66.42061737060547 108.48128704833984 65.45548299560546 Q 108.61700906982422 64.49034862060547 108.72257064208985 63.17836907958984 Q 108.82813221435546 61.86638953857422 108.91861356201171 60.313126403808596 Q 109.00909490966797 58.75986326904297 109.00909490966797 57.16135946044922 Q 109.00909490966797 54.59772127685547 108.76781131591797 52.33568758544922 Q 108.52652772216797 50.07365389404297 108.25508367919922 48.62595233154297 Q 108.76781131591797 48.776754577636716 109.8385072631836 48.91247659912109 Q 110.90920321044922 49.04819862060547 112.29658387451173 49.16884041748047 Q 113.68396453857422 49.289482214355466 115.25230789794922 49.37996356201172 Q 116.82065125732422 49.47044490966797 118.34375394287109 49.54584603271484 Q 119.86685662841796 49.62124715576172 121.19391639404297 49.65140760498047 Q 122.52097615966797 49.68156805419922 123.42578963623046 49.68156805419922 Q 125.05445389404296 49.68156805419922 126.83392039794921 49.606166931152345 Q 128.61338690185548 49.53076580810547 130.15156981201173 49.395043786621095 Q 131.68975272216795 49.25932176513672 132.82076956787108 49.063278845214846 Q 133.9517864135742 48.86723592529297 134.28355135498046 48.62595233154297 Q 134.6153162963867 48.86723592529297 135.74633314208984 49.063278845214846 Q 136.87734998779297 49.25932176513672 138.41553289794922 49.395043786621095 Q 139.95371580810547 49.53076580810547 141.71810208740234 49.606166931152345 Q 143.48248836669922 49.68156805419922 145.1111526245117 49.68156805419922 Q 146.0159661010742 49.68156805419922 147.34302586669924 49.65140760498047 Q 148.67008563232423 49.62124715576172 150.1931883178711 49.54584603271484 Q 151.71629100341798 49.47044490966797 153.28463436279299 49.37996356201172 Q 154.85297772216796 49.289482214355466 156.24035838623047 49.16884041748047 Q 157.62773905029297 49.04819862060547 158.6984349975586 48.91247659912109 Q 159.7691309448242 48.776754577636716 160.28185858154296 48.62595233154297 Q 160.16121678466797 49.31964266357422 160.0254947631836 50.26969681396484 Q 159.88977274169923 51.21975096435547 159.7842111694336 52.33568758544922 Q 159.67864959716798 53.45162420654297 159.6032484741211 54.67312239990235 Q 159.52784735107423 55.89462059326172 159.52784735107423 57.16135946044922 Q 159.52784735107423 58.75986326904297 159.61832869873047 60.313126403808596 Q 159.7088100463867 61.86638953857422 159.81437161865233 63.17836907958984 Q 159.91993319091796 64.49034862060547 160.05565521240234 65.45548299560546 Q 160.19137723388673 66.42061737060547 160.28185858154296 66.87302410888671 Q 159.31672420654297 66.54125916748046 157.83886219482423 66.33013602294922 Q 156.36100018310546 66.11901287841798 154.70217547607422 66.11901287841798 Q 153.3147948120117 66.11901287841798 152.07821639404295 66.28489534912109 Q 150.84163797607422 66.45077781982422 149.5748991088867 66.87302410888671 Q 149.90666405029296 65.87772928466796 150.13286741943358 64.2943057006836 Q 150.35907078857423 62.710882116699224 150.35907078857423 61.11237830810547 Q 150.35907078857423 58.27729608154297 149.10741214599608 56.92007586669922 Q 147.85575350341796 55.56285565185547 145.1714735229492 55.56285565185547 Q 144.41746229248048 55.56285565185547 143.1356432006836 55.69857767333984 Q 141.85382410888673 55.83429969482422 140.73788748779296 56.166064636230466 Q 140.5870852416992 56.79943406982422 140.45136322021483 57.734407995605466 Q 140.31564119873048 58.669381921386716 140.31564119873048 60.358367077636714 Q 140.31564119873048 63.133128405761724 140.43628299560547 64.8975146850586 Q 140.55692479248046 66.66190096435547 140.81328861083983 67.71751668701172 Q 141.0696524291992 68.77313240966797 141.46173826904297 69.2406193725586 Q 141.85382410888673 69.70810633544922 142.3967121948242 69.88906903076172 Q 141.88398455810545 70.03987127685546 141.49189871826172 70.65816048583984 Q 141.09981287841796 71.27644969482422 140.8434490600586 72.45270721435547 Q 140.5870852416992 73.62896473388672 140.45136322021483 75.43859168701172 Q 140.31564119873048 77.24821864013671 140.31564119873048 79.78169637451172 Q 140.31564119873048 81.07859569091796 140.6624863647461 81.93816849365234 Q 141.00933153076173 82.79774129638672 141.88398455810545 83.29538870849609 Q 142.7586375854492 83.79303612060546 144.2214193725586 84.00415926513672 Q 145.68420115966796 84.21528240966796 147.91607440185547 84.21528240966796 Q 147.76527215576172 84.93913319091797 147.61446990966797 85.9495082397461 Q 147.46366766357423 86.95988328857422 147.46366766357423 88.01549901123047 Q 147.46366766357423 89.16159608154297 147.58430946044922 90.23229202880859 Q 147.7049512573242 91.30298797607422 147.91607440185547 92.05699920654297 Q 147.01126092529296 91.87603651123047 145.38259666748047 91.7403144897461 Q 143.75393240966798 91.60459246826171 141.82366365966797 91.4990308959961 Q 139.89339490966796 91.39346932373047 137.90280526123047 91.34822864990234 Q 135.91221561279298 91.30298797607422 134.28355135498046 91.30298797607422 Q 132.65488709716797 91.30298797607422 130.7095381225586 91.34822864990234 Q 128.76418914794922 91.39346932373047 126.87916107177735 91.4990308959961 Q 124.99413299560547 91.60459246826171 123.4107094116211 91.7403144897461 Q 121.82728582763671 91.87603651123047 120.92247235107422 92.05699920654297 Z M 165.61888916015624 92.05699920654297 Q 165.79985185546875 91.30298797607422 165.93557387695313 90.23229202880859 Q 166.0712958984375 89.16159608154297 166.0712958984375 88.01549901123047 Q 166.0712958984375 86.95988328857422 165.92049365234374 85.9495082397461 Q 165.76969140625 84.93913319091797 165.61888916015624 84.21528240966796 Q 166.976109375 84.21528240966796 168.0015646484375 84.00415926513672 Q 169.027019921875 83.79303612060546 169.72071025390625 83.29538870849609 Q 170.4144005859375 82.79774129638672 170.7612457519531 81.93816849365234 Q 171.10809091796875 81.07859569091796 171.10809091796875 79.78169637451172 Q 171.10809091796875 77.03709549560547 170.97236889648437 75.19730809326171 Q 170.83664687499999 73.35752069091797 170.58028305664064 72.22650384521484 Q 170.32391923828126 71.09548699951172 169.9318333984375 70.56767913818359 Q 169.53974755859375 70.03987127685546 169.027019921875 69.88906903076172 Q 169.5699080078125 69.70810633544922 169.96199384765626 69.2406193725586 Q 170.3540796875 68.77313240966797 170.61044350585937 67.71751668701172 Q 170.86680732421874 66.66190096435547 170.98744912109376 64.8975146850586 Q 171.10809091796875 63.133128405761724 171.10809091796875 60.358367077636714 Q 171.10809091796875 59.15194910888672 170.716005078125 58.39793787841797 Q 170.32391923828126 57.64392664794922 169.66038935546874 57.206600134277345 Q 168.99685947265624 56.76927362060547 168.10712622070312 56.61847137451172 Q 167.21739296875 56.46766912841797 166.1919376953125 56.46766912841797 L 165.61888916015624 56.46766912841797 Q 165.76969140625 55.74381834716797 165.92049365234374 54.793764196777346 Q 166.0712958984375 53.84371004638672 166.0712958984375 52.78809432373047 Q 166.0712958984375 51.67215770263672 165.93557387695313 50.52606063232422 Q 165.79985185546875 49.37996356201172 165.61888916015624 48.62595233154297 Q 166.7951466796875 49.04819862060547 168.9666990234375 49.36488333740235 Q 171.1382513671875 49.68156805419922 174.60670302734374 49.68156805419922 Q 176.86873671875 49.68156805419922 179.01012861328124 49.42520423583984 Q 181.1515205078125 49.16884041748047 182.9611474609375 48.83707547607422 Q 182.9611474609375 50.28477703857422 183.5643564453125 52.12456444091797 Q 184.1675654296875 53.96435184326172 185.193020703125 55.98510194091797 Q 186.2184759765625 58.00585203857422 187.53045551757813 60.10200325927734 Q 188.84243505859376 62.198154479980474 190.2750563964844 64.15858367919921 Q 191.707677734375 66.11901287841798 193.14029907226563 67.8532387084961 Q 194.57292041015626 69.58746453857422 195.82457905273438 70.86928363037109 Q 197.0762376953125 72.15110272216796 198.01121162109376 72.90511395263673 Q 198.946185546875 73.65912518310547 199.39859228515624 73.65912518310547 L 199.45891318359375 73.65912518310547 Q 199.4890736328125 73.65912518310547 199.53431430664062 73.67420540771485 Q 199.57955498046874 73.68928563232421 199.63987587890625 73.68928563232421 Q 199.88115947265624 72.78447215576172 200.01688149414062 71.39709149169921 Q 200.152603515625 70.00971082763672 200.22800463867188 68.26040477294922 Q 200.30340576171875 66.51109871826172 200.3335662109375 64.50542884521485 Q 200.36372666015626 62.49975897216797 200.36372666015626 60.358367077636714 Q 200.36372666015626 59.15194910888672 199.9716408203125 58.39793787841797 Q 199.57955498046874 57.64392664794922 198.91602509765625 57.206600134277345 Q 198.25249521484375 56.76927362060547 197.36276196289063 56.61847137451172 Q 196.4730287109375 56.46766912841797 195.4475734375 56.46766912841797 L 194.87452490234375 56.46766912841797 Q 195.0253271484375 55.74381834716797 195.17612939453124 54.793764196777346 Q 195.326931640625 53.84371004638672 195.326931640625 52.78809432373047 Q 195.326931640625 51.67215770263672 195.19120961914064 50.52606063232422 Q 195.05548759765625 49.37996356201172 194.87452490234375 48.62595233154297 Q 195.4475734375 48.83707547607422 196.68415185546874 49.01803817138672 Q 197.9207302734375 49.19900086669922 199.51923408203123 49.34980311279297 Q 201.117737890625 49.500605358886716 202.91228461914062 49.59108670654297 Q 204.70683134765625 49.68156805419922 206.425976953125 49.68156805419922 Q 208.1752830078125 49.68156805419922 209.9698297363281 49.59108670654297 Q 211.76437646484374 49.500605358886716 213.34780004882813 49.34980311279297 Q 214.9312236328125 49.19900086669922 216.1376416015625 49.01803817138672 Q 217.3440595703125 48.83707547607422 217.9472685546875 48.62595233154297 Q 217.766305859375 49.37996356201172 217.63058383789064 50.52606063232422 Q 217.49486181640626 51.67215770263672 217.49486181640626 52.78809432373047 Q 217.49486181640626 53.84371004638672 217.6456640625 54.793764196777346 Q 217.79646630859375 55.74381834716797 217.9472685546875 56.46766912841797 L 217.31389912109375 56.46766912841797 Q 216.22812294921874 56.46766912841797 215.32330947265626 56.61847137451172 Q 214.41849599609375 56.76927362060547 213.7851265625 57.206600134277345 Q 213.15175712890624 57.64392664794922 212.80491196289063 58.39793787841797 Q 212.45806679687502 59.15194910888672 212.45806679687502 60.358367077636714 Q 212.45806679687502 63.133128405761724 212.62394926757813 64.94275535888671 Q 212.78983173828124 66.75238231201172 213.10651645507812 67.83815848388672 Q 213.423201171875 68.92393465576171 213.86052768554688 69.37634139404297 Q 214.29785419921876 69.82874813232422 214.84074228515624 69.88906903076172 Q 214.3280146484375 70.16051307373047 213.93592880859376 70.73356160888672 Q 213.54384296875 71.30661014404296 213.28747915039062 72.54318856201172 Q 213.03111533203125 73.77976697998047 212.89539331054686 75.83067752685547 Q 212.7596712890625 77.88158807373047 212.7596712890625 81.10875614013672 Q 212.7596712890625 83.28030848388671 212.94063398437498 85.07485521240234 Q 213.1215966796875 86.86940194091797 213.3779604980469 88.2417023803711 Q 213.63432431640626 89.61400281982422 213.93592880859376 90.56405697021485 Q 214.23753330078125 91.51411112060546 214.47881689453123 92.05699920654297 Q 213.7248056640625 91.81571561279297 212.78983173828124 91.66491336669922 Q 211.8548578125 91.51411112060546 210.8897234375 91.43870999755859 Q 209.9245890625 91.36330887451172 209.0197755859375 91.33314842529298 Q 208.114962109375 91.30298797607422 207.4514322265625 91.30298797607422 Q 206.7275814453125 91.30298797607422 205.82276796875 91.33314842529298 Q 204.9179544921875 91.36330887451172 203.96790034179688 91.43870999755859 Q 203.01784619140625 91.51411112060546 202.05271181640626 91.66491336669922 Q 201.08757744140624 91.81571561279297 200.2732453125 92.05699920654297 Q 200.2732453125 90.54897674560547 199.41367250976563 88.46790574951171 Q 198.55409970703124 86.38683475341797 197.15163881835937 84.09464061279297 Q 195.7491779296875 81.80244647216797 193.98479165039063 79.44993143310546 Q 192.22040537109376 77.09741639404297 190.42585864257813 75.00126517333985 Q 188.6313119140625 72.90511395263673 186.97248720703124 71.23120902099609 Q 185.3136625 69.55730408935547 184.13740498046874 68.62233016357422 Q 183.5643564453125 69.97955037841797 183.38339375 72.87495350341797 Q 183.2024310546875 75.77035662841797 183.2024310546875 79.78169637451172 Q 183.2024310546875 81.07859569091796 183.4889553222656 81.93816849365234 Q 183.77547958984374 82.79774129638672 184.43900947265624 83.29538870849609 Q 185.10253935546876 83.79303612060546 186.14307485351563 84.00415926513672 Q 187.1836103515625 84.21528240966796 188.6916328125 84.21528240966796 Q 188.54083056640624 84.93913319091797 188.3900283203125 85.9495082397461 Q 188.23922607421875 86.95988328857422 188.23922607421875 88.01549901123047 Q 188.23922607421875 89.16159608154297 188.37494809570313 90.23229202880859 Q 188.5106701171875 91.30298797607422 188.6916328125 92.05699920654297 Q 187.81697978515626 91.87603651123047 186.48992001953124 91.7403144897461 Q 185.16286025390625 91.60459246826171 183.59451689453124 91.4990308959961 Q 182.02617353515626 91.39346932373047 180.367348828125 91.34822864990234 Q 178.70852412109375 91.30298797607422 177.1703412109375 91.30298797607422 Q 175.63215830078124 91.30298797607422 173.95825336914064 91.34822864990234 Q 172.2843484375 91.39346932373047 170.716005078125 91.4990308959961 Q 169.14766171875 91.60459246826171 167.80552172851563 91.7403144897461 Q 166.46338173828124 91.87603651123047 165.61888916015624 92.05699920654297 Z M 222.1683428955078 92.05699920654297 Q 222.3493055908203 91.30298797607422 222.4850276123047 90.23229202880859 Q 222.62074963378907 89.16159608154297 222.62074963378907 88.01549901123047 Q 222.62074963378907 86.95988328857422 222.4699473876953 85.9495082397461 Q 222.31914514160155 84.93913319091797 222.1683428955078 84.21528240966796 Q 223.52556311035156 84.21528240966796 224.55101838378906 84.00415926513672 Q 225.57647365722656 83.79303612060546 226.2701639892578 83.29538870849609 Q 226.96385432128906 82.79774129638672 227.31069948730467 81.93816849365234 Q 227.65754465332031 81.07859569091796 227.65754465332031 79.78169637451172 Q 227.65754465332031 77.24821864013671 227.52182263183593 75.43859168701172 Q 227.38610061035155 73.62896473388672 227.1297367919922 72.45270721435547 Q 226.87337297363283 71.27644969482422 226.48128713378907 70.65816048583984 Q 226.0892012939453 70.03987127685546 225.57647365722656 69.88906903076172 Q 226.11936174316406 69.70810633544922 226.51144758300782 69.31602049560547 Q 226.90353342285155 68.92393465576171 227.15989724121093 67.9738805053711 Q 227.4162610595703 67.02382635498047 227.53690285644532 65.34992142333985 Q 227.65754465332031 63.676016491699215 227.65754465332031 60.90125516357422 Q 227.65754465332031 59.604355847167966 227.31069948730467 58.744783044433596 Q 226.96385432128906 57.88521024169922 226.2701639892578 57.38756282958985 Q 225.57647365722656 56.889915417480466 224.55101838378906 56.67879227294922 Q 223.52556311035156 56.46766912841797 222.1683428955078 56.46766912841797 Q 222.31914514160155 55.74381834716797 222.4699473876953 54.73344329833984 Q 222.62074963378907 53.72306824951172 222.62074963378907 52.66745252685547 Q 222.62074963378907 51.52135545654297 222.4850276123047 50.450659509277344 Q 222.3493055908203 49.37996356201172 222.1683428955078 48.62595233154297 Q 222.77155187988282 48.776754577636716 224.24941389160156 48.91247659912109 Q 225.7272759033203 49.04819862060547 227.68770510253907 49.16884041748047 Q 229.6481343017578 49.289482214355466 231.8800075439453 49.37996356201172 Q 234.11188078613282 49.47044490966797 236.2381924560547 49.54584603271484 Q 238.36450412597657 49.62124715576172 240.1590508544922 49.65140760498047 Q 241.95359758300782 49.68156805419922 243.0393737548828 49.68156805419922 Q 244.1251499267578 49.68156805419922 245.8141350830078 49.65140760498047 Q 247.5031202392578 49.62124715576172 249.44846921386718 49.54584603271484 Q 251.39381818847656 49.47044490966797 253.4296485107422 49.37996356201172 Q 255.4654788330078 49.289482214355466 257.26002556152343 49.16884041748047 Q 259.05457229003906 49.04819862060547 260.4268727294922 48.91247659912109 Q 261.7991731689453 48.776754577636716 262.40238215332033 48.62595233154297 Q 262.1610985595703 49.89269119873047 261.9047347412109 51.83804017333984 Q 261.64837092285154 53.78338914794922 261.64837092285154 55.954941491699216 Q 261.64837092285154 57.22168035888672 261.73885227050783 58.443178552246096 Q 261.82933361816407 59.66467674560547 261.9348951904297 60.67505179443359 Q 262.0404567626953 61.68542684326172 262.1761787841797 62.43943807373047 Q 262.31190080566404 63.19344930419922 262.40238215332033 63.55537469482422 Q 261.94997541503903 63.37441199951172 261.2713653076172 63.238689978027345 Q 260.5927552001953 63.10296795654297 259.8085835205078 62.99740638427734 Q 259.02441184082033 62.89184481201172 258.1799192626953 62.846604138183594 Q 257.33542668457034 62.80136346435547 256.5512550048828 62.80136346435547 Q 255.1638743408203 62.80136346435547 253.7764936767578 62.96724593505859 Q 252.3891130126953 63.133128405761724 251.12237414550782 63.55537469482422 Q 251.33349729003908 62.92200526123047 251.46921931152343 62.01719178466797 Q 251.60494133300782 61.11237830810547 251.60494133300782 60.17740438232422 Q 251.60494133300782 58.63922147216797 251.0771334716797 57.719327770996095 Q 250.54932561035156 56.79943406982422 249.73499348144531 56.31686688232422 Q 248.92066135253907 55.83429969482422 247.95552697753905 55.69857767333984 Q 246.99039260253906 55.56285565185547 246.1157395751953 55.56285565185547 Q 245.42204924316405 55.56285565185547 244.65295778808593 55.6080963256836 Q 243.8838663330078 55.65333699951172 243.08461442871095 55.81921947021485 Q 242.28536252441407 55.98510194091797 241.50119084472655 56.271626208496095 Q 240.71701916503906 56.55815047607422 240.05348928222656 57.04071766357422 Q 239.93284748535157 57.734407995605466 239.8423661376953 58.63922147216797 Q 239.75188479003907 59.54403494873047 239.75188479003907 60.90125516357422 Q 239.75188479003907 62.92200526123047 239.82728591308594 64.0530221069336 Q 239.90268703613282 65.18403895263671 240.0233288330078 65.78724793701173 Q 240.83766096191405 66.14917332763672 241.92343713378907 66.29997557373046 Q 243.00921330566405 66.45077781982422 244.15531037597657 66.45077781982422 Q 245.87445598144532 66.45077781982422 247.41263889160157 66.17933377685547 Q 248.9508218017578 65.90788973388672 249.64451213378905 65.54596434326172 Q 249.40322854003907 66.20949422607421 249.29766696777344 67.38575174560546 Q 249.1921053955078 68.56200926513672 249.1921053955078 69.85890858154298 Q 249.1921053955078 70.58275936279297 249.22226584472656 71.2915299194336 Q 249.25242629394532 72.00030047607422 249.3278274169922 72.58842923583984 Q 249.40322854003907 73.17655799560546 249.47862966308594 73.61388450927734 Q 249.5540307861328 74.05121102294922 249.64451213378905 74.26233416748047 Q 249.3730680908203 74.11153192138671 248.76985910644532 73.94564945068359 Q 248.1666501220703 73.77976697998047 247.36739821777343 73.62896473388672 Q 246.56814631347657 73.47816248779297 245.61809216308595 73.37260091552734 Q 244.66803801269532 73.26703934326171 243.67274318847657 73.26703934326171 Q 242.64728791503907 73.26703934326171 241.7123139892578 73.38768114013672 Q 240.77734006347657 73.50832293701171 240.0233288330078 73.84008787841796 Q 239.96300793457033 74.20201326904296 239.91776726074218 74.6695002319336 Q 239.87252658691406 75.13698719482421 239.82728591308594 75.84575775146484 Q 239.7820452392578 76.55452830810547 239.76696501464843 77.51966268310547 Q 239.75188479003907 78.48479705810547 239.75188479003907 79.78169637451172 Q 239.75188479003907 81.41036063232421 239.87252658691406 82.42073568115234 Q 239.99316838378905 83.43111072998047 240.1439706298828 84.15496151123047 Q 240.8678214111328 84.54704735107421 241.68215354003905 84.80341116943359 Q 242.4964856689453 85.05977498779296 243.32589802246093 85.19549700927735 Q 244.15531037597657 85.33121903076172 244.93948205566406 85.37645970458985 Q 245.72365373535155 85.42170037841797 246.41734406738283 85.42170037841797 Q 247.29199709472655 85.42170037841797 248.21189079589843 85.19549700927735 Q 249.13178449707033 84.96929364013673 249.88579572753906 84.35100443115235 Q 250.63980695800782 83.73271522216797 251.12237414550782 82.6318588256836 Q 251.60494133300782 81.53100242919922 251.60494133300782 79.81185682373047 Q 251.60494133300782 78.72608065185547 251.46921931152343 77.67046492919923 Q 251.33349729003908 76.61484920654297 251.12237414550782 75.92115887451172 Q 252.3891130126953 76.34340516357422 253.7764936767578 76.50928763427734 Q 255.1638743408203 76.67517010498047 256.5512550048828 76.67517010498047 Q 257.33542668457034 76.67517010498047 258.1799192626953 76.62992943115235 Q 259.02441184082033 76.58468875732422 259.8085835205078 76.47912718505859 Q 260.5927552001953 76.37356561279297 261.2713653076172 76.23784359130859 Q 261.94997541503903 76.10212156982422 262.40238215332033 75.92115887451172 Q 262.31190080566404 76.31324471435546 262.1761787841797 77.12757684326172 Q 262.0404567626953 77.94190897216797 261.9348951904297 79.04276536865234 Q 261.82933361816407 80.14362176513671 261.73885227050783 81.45560130615235 Q 261.64837092285154 82.76758084716796 261.64837092285154 84.12480106201171 Q 261.64837092285154 85.30105858154297 261.72377204589844 86.43207542724609 Q 261.7991731689453 87.56309227294922 261.9047347412109 88.58854754638672 Q 262.01029631347654 89.61400281982422 262.14601833496096 90.50373607177734 Q 262.2817403564453 91.39346932373047 262.40238215332033 92.05699920654297 Q 261.7991731689453 91.93635740966796 260.4268727294922 91.83079583740235 Q 259.05457229003906 91.72523426513672 257.26002556152343 91.64983314208985 Q 255.4654788330078 91.57443201904297 253.4296485107422 91.4990308959961 Q 251.39381818847656 91.42362977294921 249.44846921386718 91.3783890991211 Q 247.5031202392578 91.33314842529298 245.8141350830078 91.3180682006836 Q 244.1251499267578 91.30298797607422 243.0393737548828 91.30298797607422 Q 241.95359758300782 91.30298797607422 240.1590508544922 91.3180682006836 Q 238.36450412597657 91.33314842529298 236.2381924560547 91.3783890991211 Q 234.11188078613282 91.42362977294921 231.8800075439453 91.4990308959961 Q 229.6481343017578 91.57443201904297 227.68770510253907 91.64983314208985 Q 225.7272759033203 91.72523426513672 224.24941389160156 91.83079583740235 Q 222.77155187988282 91.93635740966796 222.1683428955078 92.05699920654297 Z M 269.85089248046876 92.05699920654297 Q 269.91121337890627 91.81571561279297 270.0167749511719 91.18234617919921 Q 270.1223365234375 90.54897674560547 270.21281787109376 89.6894039428711 Q 270.30329921875 88.82983114013672 270.3787003417969 87.84961654052735 Q 270.45410146484375 86.86940194091797 270.45410146484375 85.93442801513672 Q 270.45410146484375 83.43111072998047 270.2580585449219 81.53100242919922 Q 270.062015625 79.63089412841796 269.85089248046876 78.93720379638671 Q 271.5700380859375 79.20864783935546 273.078060546875 79.29912918701172 Q 274.5860830078125 79.38961053466797 276.0337845703125 79.38961053466797 Q 278.6879041015625 79.38961053466797 280.7388146484375 78.93720379638671 Q 280.7388146484375 80.26426356201172 281.37218408203125 81.45560130615235 Q 282.005553515625 82.64693905029297 283.13657036132815 83.52159207763671 Q 284.2675872070312 84.39624510498047 285.8510107910156 84.90897274169922 Q 287.434434375 85.42170037841797 289.364703125 85.42170037841797 Q 290.6616024414063 85.42170037841797 291.98866220703127 85.2859783569336 Q 293.31572197265626 85.15025633544921 294.3864179199219 84.69784959716797 Q 295.4571138671875 84.24544285888672 296.12064375 83.40095028076172 Q 296.7841736328125 82.55645770263672 296.7841736328125 81.13891658935547 Q 296.7841736328125 80.11346131591797 296.1658844238281 79.0126049194336 Q 295.54759521484374 77.91174852294922 294.23561567382814 77.03709549560547 Q 292.9236361328125 76.16244246826172 290.85764536132814 75.58939393310547 Q 288.79165458984374 75.01634539794922 285.8962514648438 75.01634539794922 Q 283.42309462890626 75.01634539794922 280.99517846679686 75.15206741943359 Q 278.5672623046875 75.28778944091798 275.732180078125 76.01164022216797 Q 275.6718591796875 75.10682674560547 275.0837304199219 74.02105057373046 Q 274.49560166015624 72.93527440185547 273.57570795898437 71.98522025146485 Q 272.6558142578125 71.03516610107422 271.46447651367185 70.38671644287109 Q 270.2731387695313 69.73826678466797 269.0365603515625 69.73826678466797 L 268.734955859375 69.73826678466797 Q 269.09688125 69.58746453857422 269.36832529296873 69.04457645263672 Q 269.6397693359375 68.50168836669923 269.80565180664064 67.71751668701172 Q 269.9715342773437 66.93334500732422 270.062015625 65.98329085693359 Q 270.15249697265625 65.03323670654297 270.15249697265625 64.03794188232422 Q 270.15249697265625 61.53462459716797 269.8961331542969 59.54403494873047 Q 269.6397693359375 57.55344530029297 269.1572021484375 56.70895272216797 L 269.36832529296873 56.70895272216797 Q 270.2429783203125 56.70895272216797 271.2985940429688 56.25654598388672 Q 272.354209765625 55.80413924560547 273.4249057128906 55.06520823974609 Q 274.49560166015624 54.32627723388672 275.52105693359374 53.40638353271484 Q 276.54651220703124 52.48648983154297 277.34576411132815 51.52135545654297 Q 278.145016015625 50.55622108154297 278.65774365234375 49.63632738037109 Q 279.1704712890625 48.71643367919922 279.2307921875 48.02274334716797 Q 279.68319892578126 48.29418739013672 280.36180903320314 48.58071165771484 Q 281.040419140625 48.86723592529297 282.05079418945314 49.12359974365234 Q 283.06116923828125 49.37996356201172 284.44854990234376 49.53076580810547 Q 285.83593056640626 49.68156805419922 287.7360388671875 49.68156805419922 Q 288.85197548828125 49.68156805419922 290.1036341308594 49.56092625732422 Q 291.3552927734375 49.44028446044922 292.53155029296875 49.21408109130859 Q 293.7078078125 48.98787772216797 294.7332630859375 48.68627322998047 Q 295.758718359375 48.38466873779297 296.39208779296877 48.02274334716797 Q 296.63337138671875 48.95771727294922 297.206419921875 49.93793187255859 Q 297.77946845703127 50.91814647216797 298.56364013671873 51.61183680419922 Q 299.34781181640625 50.94830692138672 299.70973720703125 50.10381434326172 Q 300.07166259765626 49.25932176513672 300.22246484375 48.62595233154297 Q 300.67487158203124 48.89739637451172 301.5796850585937 49.063278845214846 Q 302.48449853515626 49.22916131591797 303.9322000976563 49.22916131591797 Q 306.13391289062497 49.22916131591797 308.0340211914062 48.62595233154297 Q 307.9737002929688 48.86723592529297 307.8832189453125 49.56092625732422 Q 307.79273759765624 50.25461658935547 307.70225625 51.15943006591797 Q 307.61177490234377 52.06424354248047 307.55145400390626 53.08969881591797 Q 307.49113310546875 54.11515408935547 307.49113310546875 55.05012801513672 Q 307.49113310546875 57.67408709716797 307.6871760253906 59.64959652099609 Q 307.8832189453125 61.62510594482422 308.0340211914062 62.34895672607422 Q 306.49583828125003 62.07751268310547 305.13861806640625 61.98703133544922 Q 303.7813978515625 61.896549987792966 302.42417763671875 61.896549987792966 Q 299.77005810546876 61.896549987792966 297.7493080078125 62.34895672607422 Q 297.7493080078125 60.961576062011716 297.1159385742188 59.72499764404297 Q 296.482569140625 58.48841922607422 295.3515522949219 57.55344530029297 Q 294.22053544921874 56.61847137451172 292.6371118652344 56.09066351318359 Q 291.05368828125 55.56285565185547 289.12341953125 55.56285565185547 Q 287.79635976562497 55.56285565185547 286.48438022460937 55.758898571777344 Q 285.17240068359376 55.954941491699216 284.10170473632814 56.452588903808596 Q 283.0310087890625 56.95023631591797 282.36747890624997 57.76456844482422 Q 281.7039490234375 58.57890057373047 281.7039490234375 59.84563944091797 Q 281.7039490234375 60.90125516357422 282.2317568847656 61.896549987792966 Q 282.75956474609376 62.89184481201172 283.96598271484373 63.676016491699215 Q 285.17240068359376 64.46018817138672 287.14791010742186 64.94275535888671 Q 289.12341953125 65.42532254638672 292.01882265625 65.42532254638672 Q 293.225240625 65.42532254638672 294.64278173828126 65.41024232177735 Q 296.0603228515625 65.39516209716797 297.447703515625 65.3197609741211 Q 298.8350841796875 65.24435985107422 300.07166259765626 65.09355760498048 Q 301.308241015625 64.94275535888671 302.2130544921875 64.67131131591796 Q 302.30353583984373 65.57612479248047 302.96706572265623 66.72222186279296 Q 303.6305956054687 67.86831893310547 304.6409706542969 68.8786939819336 Q 305.651345703125 69.88906903076172 306.9180845703125 70.56767913818359 Q 308.1848234375 71.24628924560547 309.4515623046875 71.24628924560547 L 309.753166796875 71.24628924560547 Q 309.39124140625 71.39709149169921 309.11979736328124 71.93997957763672 Q 308.8483533203125 72.48286766357421 308.6824708496094 73.26703934326171 Q 308.51658837890625 74.05121102294922 308.42610703125 75.00126517333985 Q 308.3356256835938 75.95131932373047 308.3356256835938 76.94661414794922 Q 308.3356256835938 78.18319256591796 308.39594658203123 79.32928963623047 Q 308.45626748046874 80.47538670654296 308.5919895019531 81.44052108154297 Q 308.7277115234375 82.40565545654297 308.90867421875 83.14458646240234 Q 309.0896369140625 83.88351746826172 309.3309205078125 84.27560330810547 L 309.11979736328124 84.27560330810547 Q 308.2451443359375 84.27560330810547 307.18952861328125 84.69784959716797 Q 306.13391289062497 85.12009588623047 305.04813671875 85.82886644287109 Q 303.962360546875 86.53763699951172 302.9369052734375 87.42737025146485 Q 301.91145 88.31710350341797 301.09711787109376 89.25207742919922 Q 300.2827857421875 90.18705135498047 299.7851383300781 91.0767846069336 Q 299.28749091796874 91.96651785888672 299.25733046875 92.66020819091797 Q 298.8049237304688 92.38876414794922 298.1263136230469 92.14748055419922 Q 297.447703515625 91.90619696044922 296.4373284667969 91.71015404052734 Q 295.4269534179688 91.51411112060546 294.03957275390627 91.40854954833985 Q 292.65219208984377 91.30298797607422 290.7520837890625 91.30298797607422 Q 289.6361471679688 91.30298797607422 288.47496987304686 91.3783890991211 Q 287.313792578125 91.45379022216797 286.2430966308594 91.61967269287109 Q 285.17240068359376 91.78555516357422 284.2525069824219 92.04191898193359 Q 283.33261328125 92.29828280029297 282.69924384765625 92.66020819091797 Q 282.4277998046875 91.72523426513672 281.8698314941406 90.85058123779297 Q 281.31186318359374 89.97592821044921 280.5276915039062 89.34255877685547 Q 279.713359375 89.94576776123047 279.36651420898437 90.68469876708984 Q 279.01966904296876 91.42362977294921 278.868866796875 92.05699920654297 Q 278.627583203125 91.93635740966796 278.0997753417969 91.8006353881836 Q 277.57196748046874 91.66491336669922 276.90843759765625 91.5593517944336 Q 276.24490771484375 91.45379022216797 275.490896484375 91.3783890991211 Q 274.7368852539062 91.30298797607422 274.0130344726563 91.30298797607422 Q 272.836776953125 91.30298797607422 271.72084033203123 91.51411112060546 Q 270.6049037109375 91.72523426513672 269.85089248046876 92.05699920654297 Z M 315.9650892578125 92.05699920654297 Q 316.02541015625 91.81571561279297 316.13097172851565 91.18234617919921 Q 316.2365333007813 90.54897674560547 316.3270146484375 89.6894039428711 Q 316.41749599609375 88.82983114013672 316.49289711914065 87.84961654052735 Q 316.5682982421875 86.86940194091797 316.5682982421875 85.93442801513672 Q 316.5682982421875 83.43111072998047 316.37225532226563 81.53100242919922 Q 316.17621240234377 79.63089412841796 315.9650892578125 78.93720379638671 Q 317.68423486328123 79.20864783935546 319.19225732421876 79.29912918701172 Q 320.7002797851562 79.38961053466797 322.14798134765624 79.38961053466797 Q 324.80210087890623 79.38961053466797 326.85301142578123 78.93720379638671 Q 326.85301142578123 80.26426356201172 327.486380859375 81.45560130615235 Q 328.1197502929688 82.64693905029297 329.2507671386719 83.52159207763671 Q 330.381783984375 84.39624510498047 331.96520756835935 84.90897274169922 Q 333.5486311523438 85.42170037841797 335.47889990234376 85.42170037841797 Q 336.77579921875 85.42170037841797 338.102858984375 85.2859783569336 Q 339.42991875 85.15025633544921 340.50061469726563 84.69784959716797 Q 341.57131064453125 84.24544285888672 342.23484052734375 83.40095028076172 Q 342.89837041015625 82.55645770263672 342.89837041015625 81.13891658935547 Q 342.89837041015625 80.11346131591797 342.28008120117187 79.0126049194336 Q 341.6617919921875 77.91174852294922 340.3498124511719 77.03709549560547 Q 339.0378329101562 76.16244246826172 336.9718421386719 75.58939393310547 Q 334.9058513671875 75.01634539794922 332.0104482421875 75.01634539794922 Q 329.53729140625 75.01634539794922 327.1093752441406 75.15206741943359 Q 324.68145908203127 75.28778944091798 321.84637685546875 76.01164022216797 Q 321.78605595703124 75.10682674560547 321.19792719726564 74.02105057373046 Q 320.6097984375 72.93527440185547 319.6899047363281 71.98522025146485 Q 318.77001103515624 71.03516610107422 317.5786732910156 70.38671644287109 Q 316.387335546875 69.73826678466797 315.15075712890626 69.73826678466797 L 314.84915263671877 69.73826678466797 Q 315.2110780273438 69.58746453857422 315.4825220703125 69.04457645263672 Q 315.75396611328125 68.50168836669923 315.9198485839844 67.71751668701172 Q 316.08573105468747 66.93334500732422 316.17621240234377 65.98329085693359 Q 316.26669375 65.03323670654297 316.26669375 64.03794188232422 Q 316.26669375 61.53462459716797 316.0103299316406 59.54403494873047 Q 315.75396611328125 57.55344530029297 315.2713989257812 56.70895272216797 L 315.4825220703125 56.70895272216797 Q 316.35717509765624 56.70895272216797 317.4127908203125 56.25654598388672 Q 318.46840654296875 55.80413924560547 319.53910249023437 55.06520823974609 Q 320.6097984375 54.32627723388672 321.6352537109375 53.40638353271484 Q 322.660708984375 52.48648983154297 323.4599608886719 51.52135545654297 Q 324.25921279296875 50.55622108154297 324.7719404296875 49.63632738037109 Q 325.28466806640625 48.71643367919922 325.34498896484376 48.02274334716797 Q 325.797395703125 48.29418739013672 326.4760058105469 48.58071165771484 Q 327.1546159179687 48.86723592529297 328.1649909667969 49.12359974365234 Q 329.175366015625 49.37996356201172 330.5627466796875 49.53076580810547 Q 331.95012734375 49.68156805419922 333.85023564453127 49.68156805419922 Q 334.966172265625 49.68156805419922 336.21783090820315 49.56092625732422 Q 337.46948955078125 49.44028446044922 338.6457470703125 49.21408109130859 Q 339.82200458984374 48.98787772216797 340.84745986328124 48.68627322998047 Q 341.87291513671875 48.38466873779297 342.5062845703125 48.02274334716797 Q 342.7475681640625 48.95771727294922 343.32061669921876 49.93793187255859 Q 343.893665234375 50.91814647216797 344.6778369140625 51.61183680419922 Q 345.46200859375 50.94830692138672 345.823933984375 50.10381434326172 Q 346.185859375 49.25932176513672 346.33666162109375 48.62595233154297 Q 346.789068359375 48.89739637451172 347.6938818359375 49.063278845214846 Q 348.5986953125 49.22916131591797 350.046396875 49.22916131591797 Q 352.2481096679687 49.22916131591797 354.14821796875 48.62595233154297 Q 354.0878970703125 48.86723592529297 353.9974157226562 49.56092625732422 Q 353.906934375 50.25461658935547 353.81645302734375 51.15943006591797 Q 353.7259716796875 52.06424354248047 353.66565078125 53.08969881591797 Q 353.6053298828125 54.11515408935547 353.6053298828125 55.05012801513672 Q 353.6053298828125 57.67408709716797 353.80137280273436 59.64959652099609 Q 353.9974157226562 61.62510594482422 354.14821796875 62.34895672607422 Q 352.6100350585938 62.07751268310547 351.25281484375 61.98703133544922 Q 349.8955946289062 61.896549987792966 348.5383744140625 61.896549987792966 Q 345.8842548828125 61.896549987792966 343.86350478515624 62.34895672607422 Q 343.86350478515624 60.961576062011716 343.2301353515625 59.72499764404297 Q 342.59676591796875 58.48841922607422 341.4657490722656 57.55344530029297 Q 340.3347322265625 56.61847137451172 338.7513086425781 56.09066351318359 Q 337.16788505859375 55.56285565185547 335.2376163085938 55.56285565185547 Q 333.9105565429687 55.56285565185547 332.5985770019531 55.758898571777344 Q 331.2865974609375 55.954941491699216 330.2159015136719 56.452588903808596 Q 329.1452055664063 56.95023631591797 328.4816756835937 57.76456844482422 Q 327.8181458007812 58.57890057373047 327.8181458007812 59.84563944091797 Q 327.8181458007812 60.90125516357422 328.34595366210937 61.896549987792966 Q 328.8737615234375 62.89184481201172 330.0801794921875 63.676016491699215 Q 331.2865974609375 64.46018817138672 333.2621068847656 64.94275535888671 Q 335.2376163085938 65.42532254638672 338.13301943359374 65.42532254638672 Q 339.3394374023438 65.42532254638672 340.756978515625 65.41024232177735 Q 342.17451962890624 65.39516209716797 343.56190029296874 65.3197609741211 Q 344.94928095703125 65.24435985107422 346.185859375 65.09355760498048 Q 347.42243779296876 64.94275535888671 348.32725126953125 64.67131131591796 Q 348.4177326171875 65.57612479248047 349.0812625 66.72222186279296 Q 349.7447923828125 67.86831893310547 350.75516743164064 68.8786939819336 Q 351.76554248046875 69.88906903076172 353.03228134765624 70.56767913818359 Q 354.2990202148437 71.24628924560547 355.56575908203126 71.24628924560547 L 355.86736357421876 71.24628924560547 Q 355.50543818359375 71.39709149169921 355.233994140625 71.93997957763672 Q 354.9625500976563 72.48286766357421 354.79666762695314 73.26703934326171 Q 354.63078515625 74.05121102294922 354.54030380859376 75.00126517333985 Q 354.4498224609375 75.95131932373047 354.4498224609375 76.94661414794922 Q 354.4498224609375 78.18319256591796 354.510143359375 79.32928963623047 Q 354.5704642578125 80.47538670654296 354.70618627929684 81.44052108154297 Q 354.84190830078126 82.40565545654297 355.02287099609373 83.14458646240234 Q 355.20383369140626 83.88351746826172 355.44511728515624 84.27560330810547 L 355.233994140625 84.27560330810547 Q 354.35934111328123 84.27560330810547 353.303725390625 84.69784959716797 Q 352.2481096679687 85.12009588623047 351.16233349609377 85.82886644287109 Q 350.07655732421875 86.53763699951172 349.05110205078125 87.42737025146485 Q 348.02564677734375 88.31710350341797 347.2113146484375 89.25207742919922 Q 346.39698251953126 90.18705135498047 345.89933510742185 91.0767846069336 Q 345.4016876953125 91.96651785888672 345.37152724609376 92.66020819091797 Q 344.9191205078125 92.38876414794922 344.24051040039063 92.14748055419922 Q 343.56190029296874 91.90619696044922 342.55152524414063 91.71015404052734 Q 341.5411501953125 91.51411112060546 340.15376953125 91.40854954833985 Q 338.7663888671875 91.30298797607422 336.86628056640626 91.30298797607422 Q 335.7503439453125 91.30298797607422 334.5891666503906 91.3783890991211 Q 333.42798935546875 91.45379022216797 332.35729340820313 91.61967269287109 Q 331.2865974609375 91.78555516357422 330.36670375976564 92.04191898193359 Q 329.44681005859377 92.29828280029297 328.813440625 92.66020819091797 Q 328.54199658203123 91.72523426513672 327.98402827148436 90.85058123779297 Q 327.4260599609375 89.97592821044921 326.64188828125 89.34255877685547 Q 325.82755615234373 89.94576776123047 325.4807109863281 90.68469876708984 Q 325.1338658203125 91.42362977294921 324.98306357421876 92.05699920654297 Q 324.7417799804688 91.93635740966796 324.21397211914064 91.8006353881836 Q 323.6861642578125 91.66491336669922 323.022634375 91.5593517944336 Q 322.3591044921875 91.45379022216797 321.60509326171876 91.3783890991211 Q 320.85108203125 91.30298797607422 320.12723125 91.30298797607422 Q 318.9509737304688 91.30298797607422 317.835037109375 91.51411112060546 Q 316.71910048828124 91.72523426513672 315.9650892578125 92.05699920654297 Z" transform="matrix(1.5340909957885742, 0, 0, 1.6351349353790283, -46.8096809387207, 17.655122756958008)" style="fill: rgb(51, 51, 51); white-space: pre;"/>
  <path d="M 107.43431091308594 231.08099365234375 L 107.43431091308594 226.11810302734375 L 112.52610778808594 225.15130615234375 L 112.52610778808594 190.12103271484375 L 107.43431091308594 189.15423583984375 L 107.43431091308594 184.15911865234375 L 112.52610778808594 184.15911865234375 L 124.15989685058594 184.15911865234375 L 137.92063903808594 218.09368896484375 L 138.11399841308594 218.09368896484375 L 151.45579528808594 184.15911865234375 L 168.37474060058594 184.15911865234375 L 168.37474060058594 189.15423583984375 L 163.25071716308594 190.12103271484375 L 163.25071716308594 225.15130615234375 L 168.37474060058594 226.11810302734375 L 168.37474060058594 231.08099365234375 L 150.03782653808594 231.08099365234375 L 150.03782653808594 226.11810302734375 L 155.41966247558594 225.15130615234375 L 155.41966247558594 214.22650146484375 L 155.48411560058594 193.69818115234375 L 155.32298278808594 193.66595458984375 L 140.78880310058594 230.01751708984375 L 134.89134216308594 230.01751708984375 L 119.93821716308594 193.85931396484375 L 119.77708435058594 193.89154052734375 L 120.19602966308594 213.67864990234375 L 120.19602966308594 225.15130615234375 L 125.77122497558594 226.11810302734375 L 125.77122497558594 231.08099365234375 Z M 170.50169372558594 231.08099365234375 L 170.50169372558594 226.11810302734375 L 173.91770935058594 225.63470458984375 L 189.45091247558594 184.15911865234375 L 197.34642028808594 184.15911865234375 L 212.68626403808594 225.63470458984375 L 216.10227966308594 226.11810302734375 L 216.10227966308594 231.08099365234375 L 201.18138122558594 231.08099365234375 L 201.18138122558594 226.11810302734375 L 204.53294372558594 225.50579833984375 L 202.05149841308594 218.12591552734375 L 184.58470153808594 218.12591552734375 L 182.03880310058594 225.50579833984375 L 185.42259216308594 226.11810302734375 L 185.42259216308594 231.08099365234375 Z M 186.71165466308594 211.90618896484375 L 199.95677185058594 211.90618896484375 L 193.86595153808594 194.53607177734375 L 193.44700622558594 193.27923583984375 L 193.25364685058594 193.27923583984375 L 192.80247497558594 194.60052490234375 Z M 238.14524841308594 231.75775146484375 Q 233.34349060058594 231.75775146484375 229.21849060058594 230.56536865234375 Q 225.09349060058594 229.37298583984375 221.19407653808594 226.60150146484375 L 221.19407653808594 215.80560302734375 L 227.47825622558594 215.80560302734375 L 228.50950622558594 222.79876708984375 Q 230.21751403808594 224.02337646484375 232.71507263183594 224.76458740234375 Q 235.21263122558594 225.50579833984375 238.14524841308594 225.50579833984375 Q 241.01341247558594 225.50579833984375 242.96311950683594 224.68402099609375 Q 244.91282653808594 223.86224365234375 245.94407653808594 222.37982177734375 Q 246.97532653808594 220.89739990234375 246.97532653808594 218.86712646484375 Q 246.97532653808594 216.99798583984375 246.07298278808594 215.54779052734375 Q 245.17063903808594 214.09759521484375 243.07591247558594 212.95355224609375 Q 240.98118591308594 211.80950927734375 237.40403747558594 210.84271240234375 Q 232.15110778808594 209.42474365234375 228.62229919433594 207.49114990234375 Q 225.09349060058594 205.55755615234375 223.30491638183594 202.85052490234375 Q 221.51634216308594 200.14349365234375 221.51634216308594 196.46966552734375 Q 221.51634216308594 192.69915771484375 223.56272888183594 189.79876708984375 Q 225.60911560058594 186.89837646484375 229.25071716308594 185.22259521484375 Q 232.89231872558594 183.54681396484375 237.66184997558594 183.51458740234375 Q 242.88255310058594 183.45013427734375 246.89476013183594 184.86810302734375 Q 250.90696716308594 186.28607177734375 253.67845153808594 188.57415771484375 L 253.67845153808594 198.66107177734375 L 247.52317810058594 198.66107177734375 L 246.36302185058594 192.08685302734375 Q 245.04173278808594 191.15228271484375 242.93089294433594 190.49163818359375 Q 240.82005310058594 189.83099365234375 237.95188903808594 189.83099365234375 Q 235.50267028808594 189.83099365234375 233.63352966308594 190.63665771484375 Q 231.76438903808594 191.44232177734375 230.70091247558594 192.90863037109375 Q 229.63743591308594 194.37493896484375 229.63743591308594 196.40521240234375 Q 229.63743591308594 198.17767333984375 230.57200622558594 199.49896240234375 Q 231.50657653808594 200.82025146484375 233.69798278808594 201.89984130859375 Q 235.88938903808594 202.97943115234375 239.62767028808594 204.07513427734375 Q 247.26536560058594 206.10540771484375 251.19700622558594 209.68255615234375 Q 255.12864685058594 213.25970458984375 255.12864685058594 218.80267333984375 Q 255.12864685058594 222.70208740234375 253.01780700683594 225.61859130859375 Q 250.90696716308594 228.53509521484375 247.08811950683594 230.14642333984375 Q 243.26927185058594 231.75775146484375 238.14524841308594 231.75775146484375 Z M 270.726318359375 231.08099365234375 L 270.726318359375 226.11810302734375 L 275.850341796875 225.15130615234375 L 275.850341796875 190.37884521484375 L 266.407958984375 190.37884521484375 L 265.698974609375 196.37298583984375 L 259.608154296875 196.37298583984375 L 259.608154296875 184.15911865234375 L 300.245849609375 184.15911865234375 L 300.245849609375 196.37298583984375 L 294.122802734375 196.37298583984375 L 293.413818359375 190.37884521484375 L 283.971435546875 190.37884521484375 L 283.971435546875 225.15130615234375 L 289.095458984375 226.11810302734375 L 289.095458984375 231.08099365234375 Z M 304.564208984375 231.08099365234375 L 304.564208984375 226.11810302734375 L 309.688232421875 225.15130615234375 L 309.688232421875 190.12103271484375 L 304.564208984375 189.15423583984375 L 304.564208984375 184.15911865234375 L 340.303466796875 184.15911865234375 L 340.303466796875 196.24407958984375 L 333.987060546875 196.24407958984375 L 333.439208984375 190.41107177734375 L 317.809326171875 190.41107177734375 L 317.809326171875 203.68841552734375 L 334.277099609375 203.68841552734375 L 334.277099609375 209.97259521484375 L 317.809326171875 209.97259521484375 L 317.809326171875 224.89349365234375 L 334.309326171875 224.89349365234375 L 334.857177734375 218.93157958984375 L 341.109130859375 218.93157958984375 L 341.109130859375 231.08099365234375 Z M 346.684326171875 231.08099365234375 L 346.684326171875 226.11810302734375 L 351.808349609375 225.15130615234375 L 351.808349609375 190.12103271484375 L 346.684326171875 189.15423583984375 L 346.684326171875 184.15911865234375 L 368.372802734375 184.15911865234375 Q 373.657958984375 184.15911865234375 377.396240234375 185.78656005859375 Q 381.134521484375 187.41400146484375 383.100341796875 190.44329833984375 Q 385.066162109375 193.47259521484375 385.066162109375 197.75872802734375 Q 385.066162109375 201.88372802734375 383.116455078125 204.94525146484375 Q 381.166748046875 208.00677490234375 377.670166015625 209.69866943359375 Q 374.173583984375 211.39056396484375 369.468505859375 211.45501708984375 L 359.929443359375 211.55169677734375 L 359.929443359375 225.15130615234375 L 365.053466796875 226.11810302734375 L 365.053466796875 231.08099365234375 Z M 377.202880859375 231.08099365234375 L 368.243896484375 209.48919677734375 L 375.849365234375 208.23236083984375 L 383.454833984375 225.28021240234375 L 387.128662109375 226.05364990234375 L 387.128662109375 231.08099365234375 Z M 359.929443359375 205.23529052734375 L 368.018310546875 205.23529052734375 Q 372.594482421875 205.23529052734375 374.785888671875 203.38226318359375 Q 376.977294921875 201.52923583984375 376.977294921875 197.98431396484375 Q 376.977294921875 194.53607177734375 374.850341796875 192.48968505859375 Q 372.723388671875 190.44329833984375 368.372802734375 190.44329833984375 L 359.929443359375 190.44329833984375 Z" transform="matrix(1, 0, 0, 1, 0, 0)" style="fill: rgb(51, 51, 51); white-space: pre;"/>
</svg>